<?xml version="1.0" standalone="no"?><!DOCTYPE svg PUBLIC "-//W3C//DTD SVG 1.1//EN" "http://www.w3.org/Graphics/SVG/1.1/DTD/svg11.dtd"><svg t="1552886089471" class="icon" style="" viewBox="0 0 1024 1024" version="1.1" xmlns="http://www.w3.org/2000/svg" p-id="851" xmlns:xlink="http://www.w3.org/1999/xlink" width="200" height="200"><defs><style type="text/css"></style></defs><path d="M516.608 272.069a201.996 201.996 0 0 1 5.39 6.735c28.45 37.917 28.534 80.05 0.25 126.398-23.548 32.134-41.646 69.094-52.577 109.888-37.711 140.74 21.278 284.607 136.238 361.062-257.9-11.802-396.9-301.631-348.58-543.093 11.176-55.85 89.517-177.871 208.098-103.467 21.511 13.497 38.572 27.656 51.181 42.477z" fill="#EE0000" p-id="852"></path><path d="M521.948 217.605c26.875 28.124 40.776 68.028 34.221 109.414a130.496 130.496 0 0 1-2.915 13.65c-9.596-35.058-32.094-69.946-65.763-97.21-40.553-32.84-88.555-47.528-130.638-43.812 26.083-17.496 58.58-25.57 92.048-20.27 17.484 2.769 33.589 8.929 47.75 17.702 33.589-38.48 81.785-59.815 132.188-59.517 8.987 0.053 16.233 7.38 16.185 16.366-0.048 8.986-7.373 16.227-16.36 16.174-40.63-0.24-79.432 16.762-106.716 47.503z" fill="#7ED321" p-id="853"></path><path d="M537.132 803.239C702.116 806.383 832 840.22 832 881.5c0 43.354-143.269 78.5-320 78.5s-320-35.146-320-78.5c0-34.22 89.255-63.325 213.77-74.07-37.018-29.985-69.196-68.052-95.457-112.913-62.177-106.217-84.742-240.982-60.339-362.93 6.956-34.757 33.036-78.666 66.488-105 9.172-7.22 18.726-13.11 28.613-17.59-4.878-6.31-4.715-16.349 3.422-21.807 29.962-20.097 66.388-28.388 102.75-22.629 17.911 2.837 34.525 8.862 49.355 17.403 34.1-33.488 80.024-52.188 128.282-51.902 13.127 0.078 23.71 10.78 23.64 23.907-0.07 13.13-10.774 23.71-23.904 23.633-33.98-0.201-66.322 12.296-91.076 34.86 26.859 31.008 40.36 73.215 33.44 116.904a145.496 145.496 0 0 1-3.25 15.219c-2.386 8.824-10.827 12.383-18.09 10.666-2.7 17.358-9.687 35.33-20.994 53.858l-0.165 0.27-0.187 0.256c-23.453 32.004-40.888 68.23-51.383 107.396-27.325 101.98-2.78 207.728 60.217 286.208zM379.346 199.38c36.11 2.227 74.666 16.967 108.145 44.078 30.96 25.071 52.475 56.589 63.197 88.757a161.904 161.904 0 0 1 2.566 8.454c1.202-4.446 2.178-9 2.915-13.65 6.13-38.708-5.631-76.118-29.166-103.807a129.56 129.56 0 0 0-10.398-10.885 128.911 128.911 0 0 0-13.64-11.073 128.245 128.245 0 0 0-12.922-8.002c-12.494-6.746-26.322-11.529-41.142-13.876-33.468-5.3-65.965 2.774-92.048 20.27 7.341-0.648 14.863-0.736 22.493-0.266z m156.435 135.59c-10.29-29.525-30.32-57.66-57.73-79.855-18.273-14.797-38.413-25.798-58.902-32.665-53.883 21.892-87.75 83.585-94.81 118.867-41.977 209.77 57.42 456.043 253.332 524.816 0.666 0.087 1.334 0.173 2.002 0.257-104.7-82.529-152.703-220.917-117.247-353.242 10.95-40.863 29.131-78.687 53.583-112.12 14.137-23.252 20.76-45.222 19.772-66.059z m-8.636-133.325c27.563-25.26 63.664-39.268 101.564-39.044a8.76 8.76 0 0 0 8.815-8.714c0.026-4.845-3.882-8.797-8.729-8.826-43.162-0.256-84.263 16.025-115.282 45.294a143.958 143.958 0 0 1 13.632 11.29z" fill="#162B3F" p-id="854"></path></svg>