<?xml version="1.0" standalone="no"?><!DOCTYPE svg PUBLIC "-//W3C//DTD SVG 1.1//EN" "http://www.w3.org/Graphics/SVG/1.1/DTD/svg11.dtd"><svg t="1552733436866" class="icon" style="" viewBox="0 0 1024 1024" version="1.1" xmlns="http://www.w3.org/2000/svg" p-id="869" xmlns:xlink="http://www.w3.org/1999/xlink" width="200" height="200"><defs><style type="text/css"></style></defs><path d="M563.4 781.974L461.52 500.324l71.396-123.88h31.699l39.178 59.242 39.485-59.243h65.16l-51.663 144.574h-126.05c-5.852 0-10.595 4.743-10.595 10.594 0 5.85 4.743 10.594 10.594 10.594h118.48l-29.706 83.125h-63.375c-5.598 0-10.137 4.539-10.137 10.137 0 5.599 4.539 10.137 10.137 10.137h56.13L563.4 781.974z" fill="#FFBB00" p-id="870"></path><path d="M314.458 376.443h74.286l163.647 436.34-21.426 60.136c-3.707 10.405-15.147 15.834-25.552 12.127a20 20 0 0 1-12.104-12.062l-178.851-496.54z" fill="#FA8911" p-id="871"></path><path d="M512.228 151.566C399.436 151.566 308 243.002 308 355.793h73.404c0-56.28 28.977-167.416 130.824-204.227z" fill="#C41E6C" p-id="872"></path><path d="M716.456 355.793c0-99.402-71.016-182.218-165.08-200.48-130.88 35.61-149.638 161.928-149.638 200.48 12.505 31.626 29.225 71.117 50.16 118.47l69.02-118.47h54.26l28.542 43.01 28.539-43.01h84.197z" fill="#EA6083" p-id="873"></path></svg>