<?xml version="1.0" standalone="no"?><!DOCTYPE svg PUBLIC "-//W3C//DTD SVG 1.1//EN" "http://www.w3.org/Graphics/SVG/1.1/DTD/svg11.dtd"><svg t="1550628126207" class="icon" style="" viewBox="0 0 1024 1024" version="1.1" xmlns="http://www.w3.org/2000/svg" p-id="1967" xmlns:xlink="http://www.w3.org/1999/xlink" width="200" height="200"><defs><style type="text/css"></style></defs><path d="M936.96 998.4H364.032c-28.672 0-51.2-23.04-51.2-51.2s23.04-51.2 51.2-51.2h521.216V128.512H364.032c-28.672 0-51.2-23.04-51.2-51.2s23.04-51.2 51.2-51.2H936.96c28.672 0 51.2 23.04 51.2 51.2V947.2c0 28.16-23.04 51.2-51.2 51.2z" fill="#af9fd3" p-id="1968"></path><path d="M280.576 755.2c-13.312 0-26.112-5.12-36.352-14.848L51.2 547.84c-9.728-9.728-15.36-23.04-15.36-36.352a51.2 51.2 0 0 1 15.36-36.352l193.536-190.976a51.1488 51.1488 0 0 1 72.704 0.512c19.968 19.968 19.968 52.736-0.512 72.704L160.256 511.488l156.672 155.648c19.968 19.968 20.48 52.736 0 72.704-9.728 10.24-23.04 15.36-36.352 15.36z" fill="#af9fd3" p-id="1969"></path><path d="M606.72 563.2H118.784c-28.672 0-51.2-23.04-51.2-51.2s23.04-51.2 51.2-51.2h487.936c28.672 0 51.2 23.04 51.2 51.2s-22.528 51.2-51.2 51.2z" fill="#af9fd3" p-id="1970"></path></svg>