<?xml version="1.0" standalone="no"?><!DOCTYPE svg PUBLIC "-//W3C//DTD SVG 1.1//EN" "http://www.w3.org/Graphics/SVG/1.1/DTD/svg11.dtd"><svg t="1552550493985" class="icon" style="" viewBox="0 0 1024 1024" version="1.1" xmlns="http://www.w3.org/2000/svg" p-id="1894" xmlns:xlink="http://www.w3.org/1999/xlink" width="200" height="200"><defs><style type="text/css"></style></defs><path d="M513 509.4m-464.9 0a464.9 464.9 0 1 0 929.8 0 464.9 464.9 0 1 0-929.8 0Z" fill="#5FB29F" p-id="1895"></path><path d="M390.9 306.2c-6.3-31.3-21.7-47.7-48.4-49.9-30-2.5-46.2 9.7-60.3 45.8-12.2-14.8-27.6-20.7-46-16-18.5 4.7-28.1 18.4-32.2 36.2-19-6.8-33.4 6.1-35.4 19.7-2.2 15.6 9.7 27.8 28.3 28.6 8.3 0.3 16.6 0 24.9 0h354.7c-4.8-1.7-7-2.6-9.3-3.2-37.2-10-74.4-20.1-111.6-29.8-5.4-1.4-7.7-3.2-8.2-9.3-1.2-15.5-13.1-28.7-28.1-28.9-9.5-0.2-19 4.4-28.4 6.8zM718.7 378.5c10.2-14.3 20.5-28.6 31-43.2-10.7-7.3-20.2-13.8-30.2-20.7-10.4 15.4-20.1 29.9-29.8 44.3-0.9 0.9-1.9 1.7-2.6 2.7-43.1 61.6-86 123.3-129.1 184.9-27 38.6-54.1 77.2-81.2 115.8-23 4.3-46.6 6.6-68.9 13.2-35.8 10.7-66 31.1-88 62.1-1.8 2.5-1 6.8-1.4 10.3 4.1 5.6 8.4 11.1 12.3 16.9 12.8 19.4 31.4 29.9 53.7 32.8 25.8 3.4 51.8 6.8 77.7 7.1 36.9 0.4 73.8-1.4 110.6-3.2 38.9-1.9 71.7-15.8 91.7-51.8 0-2.7 1.1-6.2-0.2-7.8-8-9.9-15.7-20.2-25-28.7-33.3-30.8-74.1-44.7-118.4-49.8 0.7-1.4 1.3-2.9 2.2-4.2 29.7-42.6 59.5-85.1 89.2-127.7 35.5-51 71-102 106.4-153z" fill="#FFFFFF" p-id="1896"></path><path d="M520.9 663.4c-6.9 9.5-14 18.8-20.5 28.7-3.3 5-7.3 7-12.7 5.6-9.1-2.4-18-5.2-28.6-8.3 6.7-10.3 12.2-18.6 17.7-26.9 27.1-38.6 54.2-77.1 81.2-115.8 43.1-61.6 86.1-123.3 129.1-184.9 0.7-1 1.7-1.8 2.6-2.7 9.7 6.5 19.3 13.1 29 19.6-35.5 51-70.9 102-106.5 152.9-29.7 42.6-59.5 85.1-89.2 127.7-0.8 1.2-1.4 2.7-2.1 4.1z" fill="#794A34" p-id="1897"></path><path d="M318.5 747.9c16.9 4.1 33.7 8.9 50.7 12 14.9 2.7 30.1 4 45.2 5.2 19.6 1.6 39.2 3.1 58.9 3.6 15.1 0.4 30.2-0.8 45.2-1.4 17.5-0.7 34.9-1.2 52.4-2.2 29.2-1.5 58.1-5.1 86-14.1 2.4-0.8 5-1 7.4-1.4-20 36-52.8 49.8-91.7 51.8-36.8 1.8-73.7 3.7-110.6 3.2-25.9-0.3-51.9-3.7-77.7-7.1-22.3-3-40.9-13.4-53.7-32.8-3.7-5.7-8-11.2-12.1-16.8z" fill="#DFE2E1" p-id="1898"></path><path d="M718.7 378.5c-9.7-6.5-19.3-13.1-29-19.6 9.7-14.4 19.4-28.9 29.8-44.3 10 6.9 19.6 13.4 30.2 20.7-10.5 14.7-20.7 29-31 43.2z" fill="#D76159" p-id="1899"></path></svg>