<?xml version="1.0" standalone="no"?><!DOCTYPE svg PUBLIC "-//W3C//DTD SVG 1.1//EN" "http://www.w3.org/Graphics/SVG/1.1/DTD/svg11.dtd"><svg t="1552901162215" class="icon" style="" viewBox="0 0 1024 1024" version="1.1" xmlns="http://www.w3.org/2000/svg" p-id="838" xmlns:xlink="http://www.w3.org/1999/xlink" width="200" height="200"><defs><style type="text/css"></style></defs><path d="M840.1536 322.4064c-9.1776-7.296-17.9584-15.168-27.264-23.5136-41.152-36.864-87.808-78.6816-185.1648-87.8464-97.344-9.1776-151.04 23.168-198.4 51.712-4.3264 2.624-8.6656 5.248-13.0432 7.8336-34.432 20.3008-67.8784 36.672-128.4096 30.9376-50.8288-4.8-79.616-20.736-107.2128-43.1872a46.5536 46.5536 0 0 0-58.7776 72.192c33.5744 27.328 78.5152 56.256 157.2736 63.68 11.2896 1.0624 22.0288 1.5616 32.2432 1.5616 69.4016 0 114.688-22.8992 152.192-45.0048 4.6336-2.7264 9.216-5.504 13.824-8.2688 41.7536-25.1776 74.7776-45.1072 141.5936-38.784 66.816 6.3104 95.4752 31.9872 131.7504 64.512 9.9072 8.8704 20.1344 18.0224 31.4496 27.0336a46.336 46.336 0 0 0 28.928 10.112 46.5408 46.5408 0 0 0 29.0048-82.9696M873.6 523.776c-9.152-7.296-17.9328-15.1552-27.2384-23.5008-41.152-36.8768-87.808-78.6816-185.1904-87.872-55.296-5.2096-102.912 2.6752-149.5552 24.8064-17.7792 8.448-33.3952 17.8304-48.4864 26.9184-41.8176 25.1904-74.7904 45.1328-141.8112 38.7584-50.8544-4.7872-79.616-20.7232-107.1872-43.1616a46.5408 46.5408 0 1 0-58.8032 72.1792c33.5616 27.3152 78.4896 56.2432 157.2608 63.6672 11.52 1.088 22.4256 1.6 32.7808 1.6 77.2608 0 123.9936-28.1216 165.7728-53.2864 13.7728-8.2816 26.7776-16.1152 40.4096-22.5792 22.336-10.624 51.7504-20.8256 100.8896-16.2176 66.8288 6.2976 95.5008 32 131.7888 64.512 9.8816 8.8704 20.1216 18.0224 31.424 27.0208 8.5504 6.8224 18.7776 10.1248 28.9408 10.1248a46.5408 46.5408 0 0 0 29.0048-82.9696" fill="#CCCCCC" p-id="839"></path><path d="M907.0464 725.1072c-9.1648-7.296-17.9584-15.168-27.2512-23.5136-41.152-36.864-87.808-78.6816-185.1648-87.8464-25.5488-2.4064-49.5488-1.9072-73.344 1.5616h-0.064c-54.144 7.8976-91.5968 30.3872-124.6336 50.24-41.856 25.1392-74.9312 44.9664-141.824 38.6816-50.8288-4.8-79.6288-20.736-107.2128-43.1872a46.5536 46.5536 0 0 0-58.7648 72.192c33.5488 27.328 78.4896 56.256 157.2608 63.68 11.52 1.0752 22.4384 1.5872 32.7936 1.5872 77.184 0 123.8912-28.0704 165.6704-53.1584 29.2352-17.5488 54.4768-32.7168 90.112-37.9136h0.0128c16.384-2.3808 33.152-2.7264 51.264-0.9984 66.816 6.2848 95.4752 31.9744 131.7632 64.4992 9.8944 8.8576 20.1216 18.0224 31.4368 27.0208a46.336 46.336 0 0 0 28.928 10.112 46.5408 46.5408 0 0 0 29.0048-82.9696" fill="#ADB0B2" p-id="840"></path></svg>