<?xml version="1.0" standalone="no"?><!DOCTYPE svg PUBLIC "-//W3C//DTD SVG 1.1//EN" "http://www.w3.org/Graphics/SVG/1.1/DTD/svg11.dtd"><svg t="1552908081764" class="icon" style="" viewBox="0 0 1024 1024" version="1.1" xmlns="http://www.w3.org/2000/svg" p-id="1186" xmlns:xlink="http://www.w3.org/1999/xlink" width="200" height="200"><defs><style type="text/css"></style></defs><path d="M575.8 258.5a169.9 158.4 0 1 0 339.8 0 169.9 158.4 0 1 0-339.8 0Z" fill="#57AA21" p-id="1187"></path><path d="M863.6 230.6a18.5 17.2 0 1 0 37 0 18.5 17.2 0 1 0-37 0Z" fill="#9FD67B" p-id="1188"></path><path d="M864.6 192.6a7.5 7 0 1 0 15 0 7.5 7 0 1 0-15 0Z" fill="#9FD67B" p-id="1189"></path><path d="M938.1 275.7c-14.9 3.7-30.5 5.6-46.6 5.6-100.8 0-182.5-76.2-182.5-170.1 0-10.4 1-20.5 2.9-30.4-6.1-0.4-12.2-0.6-18.4-0.6H330.3C194.1 80.1 82.7 184 82.7 310.9v401.8c0 126.9 111.4 230.7 247.6 230.7h363.1c136.2 0 247.6-103.8 247.6-230.7V310.9c0-12-1-23.7-2.9-35.2z" fill="#87C161" p-id="1190"></path><path d="M693.4 959.7H330.3c-146.2 0-265.1-110.8-265.1-247V310.9c0-136.2 118.9-247 265.1-247h363.1c6.6 0 13.2 0.2 19.7 0.7l19.3 1.3-3.4 17.8c-1.7 9-2.6 18.2-2.6 27.5 0 84.8 74 153.8 165.1 153.8 14.3 0 28.5-1.7 42.2-5.1l18.7-4.6 3 17.9c2.1 12.4 3.1 25.1 3.1 37.7v401.8c-0.1 136.2-119 247-265.1 247zM330.3 96.4c-126.9 0-230.1 96.2-230.1 214.5v401.8c0 118.3 103.2 214.5 230.1 214.5h363.1c126.9 0 230.1-96.2 230.1-214.5V310.9c0-5.2-0.2-10.4-0.6-15.6-10.4 1.5-20.9 2.3-31.4 2.3-110.3 0-200-83.6-200-186.4 0-4.9 0.2-9.8 0.6-14.7H330.3z" fill="#47871E" p-id="1191"></path><path d="M268.3 192.6a10.6 9.9 0 1 0 21.2 0 10.6 9.9 0 1 0-21.2 0Z" fill="#D9FFC0" p-id="1192"></path><path d="M370.3 128.2a10.6 9.9 0 1 0 21.2 0 10.6 9.9 0 1 0-21.2 0Z" fill="#D9FFC0" p-id="1193"></path><path d="M380.9 222.2a10.6 9.9 0 1 0 21.2 0 10.6 9.9 0 1 0-21.2 0Z" fill="#D9FFC0" p-id="1194"></path><path d="M257.6 285.3a10.6 9.9 0 1 0 21.2 0 10.6 9.9 0 1 0-21.2 0Z" fill="#D9FFC0" p-id="1195"></path><path d="M157.2 222.2a10.6 9.9 0 1 0 21.2 0 10.6 9.9 0 1 0-21.2 0Z" fill="#D9FFC0" p-id="1196"></path><path d="M467.5 241.1a10.6 9.9 0 1 0 21.2 0 10.6 9.9 0 1 0-21.2 0Z" fill="#D9FFC0" p-id="1197"></path><path d="M499.3 159.6a10.6 9.9 0 1 0 21.2 0 10.6 9.9 0 1 0-21.2 0Z" fill="#D9FFC0" p-id="1198"></path><path d="M634.6 155.3a10.6 9.9 0 1 0 21.2 0 10.6 9.9 0 1 0-21.2 0Z" fill="#D9FFC0" p-id="1199"></path><path d="M655.8 210.4a10.6 9.9 0 1 0 21.2 0 10.6 9.9 0 1 0-21.2 0Z" fill="#D9FFC0" p-id="1200"></path><path d="M660.2 274.6a10.6 9.9 0 1 0 21.2 0 10.6 9.9 0 1 0-21.2 0Z" fill="#D9FFC0" p-id="1201"></path><path d="M780.8 305.7a10.6 9.9 0 1 0 21.2 0 10.6 9.9 0 1 0-21.2 0Z" fill="#D9FFC0" p-id="1202"></path><path d="M745.7 348.2a10.6 9.9 0 1 0 21.2 0 10.6 9.9 0 1 0-21.2 0Z" fill="#D9FFC0" p-id="1203"></path><path d="M850.9 365.3a10.6 9.9 0 1 0 21.2 0 10.6 9.9 0 1 0-21.2 0Z" fill="#D9FFC0" p-id="1204"></path><path d="M565.1 207.8a10.6 9.9 0 1 0 21.2 0 10.6 9.9 0 1 0-21.2 0Z" fill="#D9FFC0" p-id="1205"></path><path d="M221 413.2s74.8-187.3 332.8-126.4c-17 2.6-221.2-27.3-332.8 126.4z" fill="#47871E" p-id="1206"></path><path d="M161.2 624.1a351.8 304.1 0 1 0 703.6 0 351.8 304.1 0 1 0-703.6 0Z" fill="#FFDEC2" p-id="1207"></path><path d="M308.2 623.3a58.9 85.5 0 1 0 117.8 0 58.9 85.5 0 1 0-117.8 0Z" fill="#47871E" p-id="1208"></path><path d="M273.3 617.4c7.9-38.9 39-67.9 76.1-67.9s68.3 29 76.1 67.9h0.5c0-47.2-34.3-85.5-76.6-85.5s-76.6 38.3-76.6 85.5" fill="#47871E" p-id="1209"></path><path d="M635.3 623.3a58.9 85.5 0 1 0 117.8 0 58.9 85.5 0 1 0-117.8 0Z" fill="#47871E" p-id="1210"></path><path d="M600.4 617.4c7.9-38.9 39-67.9 76.1-67.9s68.3 29 76.1 67.9h0.5c0-47.2-34.3-85.5-76.6-85.5s-76.6 38.3-76.6 85.5" fill="#47871E" p-id="1211"></path><path d="M450 725.7a60.1 25.9 0 1 0 120.2 0 60.1 25.9 0 1 0-120.2 0Z" fill="#57AA21" p-id="1212"></path><path d="M221 753.3a80 25.9 0 1 0 160 0 80 25.9 0 1 0-160 0Z" fill="#FFB6B6" p-id="1213"></path><path d="M645 753.3a80 25.9 0 1 0 160 0 80 25.9 0 1 0-160 0Z" fill="#FFB6B6" p-id="1214"></path><path d="M492.8 711.2a17.3 7.4 0 1 0 34.6 0 17.3 7.4 0 1 0-34.6 0Z" fill="#9FD67B" p-id="1215"></path><path d="M864.8 667.5c0-167.9-157.5-304.1-351.8-304.1S161.2 499.6 161.2 667.5v-43.4C161.2 456.2 318.7 320 513 320s351.8 136.1 351.8 304.1" fill="#47871E" p-id="1216"></path></svg>