<?xml version="1.0" standalone="no"?><!DOCTYPE svg PUBLIC "-//W3C//DTD SVG 1.1//EN" "http://www.w3.org/Graphics/SVG/1.1/DTD/svg11.dtd"><svg t="1552908307925" class="icon" style="" viewBox="0 0 1024 1024" version="1.1" xmlns="http://www.w3.org/2000/svg" p-id="1342" xmlns:xlink="http://www.w3.org/1999/xlink" width="200" height="200"><defs><style type="text/css"></style></defs><path d="M942.9 589.7c0.3 238.7-192.5 354.5-430.6 354.2S81.1 827.4 80.8 588.6C80.5 349.9 379.3 79.3 511.2 79.5c148.5 0.2 431.4 271.5 431.7 510.2z" fill="#A3341A" p-id="1343"></path><path d="M851.3 826.8s-308.8-129.6-576.4 69.3c27.2 11.6 345.8 135.9 576.4-69.3z" fill="#F2CB80" p-id="1344"></path><path d="M298.4 182.4s3.1 60.5 76.2 45.3c18.3-6.1 64 47.8 115.8 2.6 0 0.6 88.4 25.1 106.6-14.6 0-6.1 90.8 21.6 83.4-65.5-18.7-12-110.5-78.2-179.3-69.1 0 0-129.7 22.5-202.7 101.3z" fill="#A24319" p-id="1345"></path><path d="M347.1 162.9s2.5 49 61.7 36.7c14.8-4.9 51.8 38.7 93.7 2.1 0 0.5 71.5 20.3 86.3-11.8 0-4.9 73.5 17.5 67.5-53-15.2-9.7-89.4-63.3-145.1-55.9 0 0-105 18.2-164.1 81.9z" fill="#F2CB80" p-id="1346"></path><path d="M161.8 836.6c-63.2-63.4-96.5-148.2-96.6-248-0.1-110 61.7-239.3 169.8-354.8 95.1-101.7 206.1-170 276.1-169.9C588.2 64 699.2 131 794 234.7c104.3 114.1 164.2 243.5 164.4 355.1 0.2 117.4-45.5 213.9-132.1 279.2-78.8 59.4-187.4 90.8-314 90.6-126.6-0.2-235.3-31.8-314.3-91.4-12.9-9.9-25-20.4-36.2-31.6z m586.8-604.5c-82.6-82.8-175.4-137-237.4-137-61-0.1-165.2 65.7-253.4 160.1C155.1 365 96.2 486.5 96.4 588.6c0.1 81 26.8 164.7 90.7 228.8 65.5 65.7 170.1 110.7 325.2 110.9 119.8 0.2 221.9-29 295.3-84.3 78.5-59.2 119.8-147.1 119.7-254.3-0.1-103.9-57.1-225.6-156.2-334-7.3-8.1-14.9-16-22.5-23.6z" fill="#6A2811" p-id="1347"></path><path d="M220 401s74.8-187.3 332.8-126.4c-17 2.6-221.2-27.3-332.8 126.4z" fill="#A24319" p-id="1348"></path><path d="M160.2 611.9a351.8 304.1 0 1 0 703.6 0 351.8 304.1 0 1 0-703.6 0Z" fill="#FFDEC2" p-id="1349"></path><path d="M307.2 611a58.9 85.5 0 1 0 117.8 0 58.9 85.5 0 1 0-117.8 0Z" fill="#6A2811" p-id="1350"></path><path d="M272.3 605.1c7.9-38.9 39-67.9 76.1-67.9s68.3 29 76.1 67.9h0.5c0-47.2-34.3-85.5-76.6-85.5s-76.6 38.3-76.6 85.5" fill="#6A2811" p-id="1351"></path><path d="M634.3 611a58.9 85.5 0 1 0 117.8 0 58.9 85.5 0 1 0-117.8 0Z" fill="#6A2811" p-id="1352"></path><path d="M599.4 605.1c7.9-38.9 39-67.9 76.1-67.9s68.3 29 76.1 67.9h0.5c0-47.2-34.3-85.5-76.6-85.5s-76.6 38.3-76.6 85.5" fill="#6A2811" p-id="1353"></path><path d="M449 713.5a60.1 25.9 0 1 0 120.2 0 60.1 25.9 0 1 0-120.2 0Z" fill="#A24319" p-id="1354"></path><path d="M220 741a80 25.9 0 1 0 160 0 80 25.9 0 1 0-160 0Z" fill="#FFB6B6" p-id="1355"></path><path d="M644 741a80 25.9 0 1 0 160 0 80 25.9 0 1 0-160 0Z" fill="#FFB6B6" p-id="1356"></path><path d="M491.8 698.9a17.3 7.4 0 1 0 34.6 0 17.3 7.4 0 1 0-34.6 0Z" fill="#F2CB80" p-id="1357"></path><path d="M863.8 655.3c0-167.9-157.5-304.1-351.8-304.1S160.2 487.3 160.2 655.3v-43.4c0-167.9 157.5-304.1 351.8-304.1S863.8 444 863.8 611.9" fill="#6A2811" p-id="1358"></path></svg>