<?xml version="1.0" standalone="no"?><!DOCTYPE svg PUBLIC "-//W3C//DTD SVG 1.1//EN" "http://www.w3.org/Graphics/SVG/1.1/DTD/svg11.dtd"><svg t="1552908495798" class="icon" style="" viewBox="0 0 1024 1024" version="1.1" xmlns="http://www.w3.org/2000/svg" p-id="1484" xmlns:xlink="http://www.w3.org/1999/xlink" width="200" height="200"><defs><style type="text/css"></style></defs><path d="M375.8 135.3c36.1-33.2 84.8-52 136.4-52 57.9-0.1 112.1 23.5 148.8 64.5 75.5 84.1 137 162.3 182.9 232.3 63.2 96.4 95.2 176 95.2 236.6 0 103.3-44.7 188.1-129 245.2-38.5 26-84.5 45.9-137.1 59.2-50.2 12.7-105.5 19.1-164.1 19.1-120.7 0-223.7-27.2-298-78.5-39.9-27.6-70.9-61.9-92.1-101.9-22.2-41.9-33.5-90.2-33.5-143.2 0-60.5 32-140.1 95.2-236.6 45.9-70.1 107.4-148.2 182.9-232.3 4-4.3 8.2-8.5 12.4-12.4z" fill="#EF5D59" p-id="1485"></path><path d="M373 149.7c32.2-29.7 75.1-46.9 120.2-47.8 50.5-1.1 97.3 18.5 128.6 53.7C686 227.7 738 294.9 776.7 355.2c53.2 83.1 79.4 152 78.2 204.9-2.1 90.2-42.9 164.9-117.7 216.3-34.1 23.4-74.7 41.6-120.9 54.1-44.1 12-92.5 18.6-143.7 19.6-105.4 2.1-194.8-19.8-258.5-63.3-34.3-23.4-60.7-52.8-78.3-87.3-18.5-36.2-27.4-78.2-26.3-124.4 1.3-52.9 30.9-122.9 88-208.2 41.5-62 96.8-131.3 164.5-206 3.5-3.9 7.2-7.7 11-11.2z" fill="#F98A8A" p-id="1486"></path><path d="M509 959.7c-125.3 0-232.7-28.5-310.7-82.4-42.7-29.6-75.8-66.2-98.4-109-23.6-44.6-35.6-95.7-35.6-151.8 0-64.1 33-147.1 98.2-246.7 46.5-71 108.7-150 184.8-234.7 4.7-5.1 9.3-9.7 13.7-13.8 40.4-37.2 94.1-57.7 151.4-57.7h0.3c64 0 124.1 26.1 164.9 71.6 76 84.8 138.2 163.7 184.7 234.6 65.2 99.4 98.2 182.4 98.2 246.7 0 109.7-47.6 199.9-137.7 260.9-40.6 27.5-89 48.4-144 62.3-52 13.3-109.1 20-169.8 20zM390.8 149.1c-3.6 3.3-7.3 7.1-11.2 11.3-74.6 83.1-135.6 160.4-181 229.8-61.1 93.4-92.1 169.6-92.1 226.5 0 50.1 10.5 95.4 31.3 134.6 19.6 37.1 48.5 69 85.8 94.8 70.6 48.8 169.2 74.6 285.3 74.6 56.9 0 110.2-6.2 158.5-18.4 50-12.6 93.8-31.5 130.1-56.1C876.4 792.8 918 713.5 918 616.7c0-57-31-133.2-92.1-226.5-45.5-69.3-106.4-146.6-181.1-229.9-32.7-36.5-80.9-57.4-132.3-57.4h-0.2c-46-0.1-89.1 16.3-121.5 46.2z" fill="#D1352A" p-id="1487"></path><path d="M349.3 251.7a28.1 36.5 0 1 0 56.2 0 28.1 36.5 0 1 0-56.2 0Z" fill="#EF5D59" p-id="1488"></path><path d="M271.1 343.9a28.1 36.5 0 1 0 56.2 0 28.1 36.5 0 1 0-56.2 0Z" fill="#EF5D59" p-id="1489"></path><path d="M631.1 335.1a28.1 36.5 0 1 0 56.2 0 28.1 36.5 0 1 0-56.2 0Z" fill="#EF5D59" p-id="1490"></path><path d="M478.2 288.2a28.1 36.5 0 1 0 56.2 0 28.1 36.5 0 1 0-56.2 0Z" fill="#EF5D59" p-id="1491"></path><path d="M575 217.4a28.1 36.5 0 1 0 56.2 0 28.1 36.5 0 1 0-56.2 0Z" fill="#EF5D59" p-id="1492"></path><path d="M450.2 166.5a28.1 36.5 0 1 0 56.2 0 28.1 36.5 0 1 0-56.2 0Z" fill="#EF5D59" p-id="1493"></path><path d="M221 413.2s74.8-187.3 332.8-126.4c-17 2.6-221.2-27.3-332.8 126.4z" fill="#EF5D59" p-id="1494"></path><path d="M161.2 624.1a351.8 304.1 0 1 0 703.6 0 351.8 304.1 0 1 0-703.6 0Z" fill="#FFDEC2" p-id="1495"></path><path d="M308.2 623.3a58.9 85.5 0 1 0 117.8 0 58.9 85.5 0 1 0-117.8 0Z" fill="#D1352A" p-id="1496"></path><path d="M273.3 617.4c7.9-38.9 39-67.9 76.1-67.9s68.3 29 76.1 67.9h0.5c0-47.2-34.3-85.5-76.6-85.5s-76.6 38.3-76.6 85.5" fill="#D1352A" p-id="1497"></path><path d="M635.3 623.3a58.9 85.5 0 1 0 117.8 0 58.9 85.5 0 1 0-117.8 0Z" fill="#D1352A" p-id="1498"></path><path d="M600.4 617.4c7.9-38.9 39-67.9 76.1-67.9s68.3 29 76.1 67.9h0.5c0-47.2-34.3-85.5-76.6-85.5s-76.6 38.3-76.6 85.5" fill="#D1352A" p-id="1499"></path><path d="M450 725.7a60.1 25.9 0 1 0 120.2 0 60.1 25.9 0 1 0-120.2 0Z" fill="#EF5D59" p-id="1500"></path><path d="M221 753.3a80 25.9 0 1 0 160 0 80 25.9 0 1 0-160 0Z" fill="#FFB6B6" p-id="1501"></path><path d="M645 753.3a80 25.9 0 1 0 160 0 80 25.9 0 1 0-160 0Z" fill="#FFB6B6" p-id="1502"></path><path d="M492.8 711.2a17.3 7.4 0 1 0 34.6 0 17.3 7.4 0 1 0-34.6 0Z" fill="#FFFFFF" p-id="1503"></path><path d="M864.8 667.5c0-167.9-157.5-304.1-351.8-304.1S161.2 499.6 161.2 667.5v-43.4C161.2 456.2 318.7 320 513 320s351.8 136.1 351.8 304.1" fill="#D1352A" p-id="1504"></path></svg>