<?xml version="1.0" standalone="no"?><!DOCTYPE svg PUBLIC "-//W3C//DTD SVG 1.1//EN" "http://www.w3.org/Graphics/SVG/1.1/DTD/svg11.dtd"><svg t="1552909265510" class="icon" style="" viewBox="0 0 1024 1024" version="1.1" xmlns="http://www.w3.org/2000/svg" p-id="1630" xmlns:xlink="http://www.w3.org/1999/xlink" width="200" height="200"><defs><style type="text/css"></style></defs><path d="M84.3 512.1c0 236 191.1 427.3 426.8 427.3s426.8-191.3 426.8-427.3S746.8 84.8 511.1 84.8 84.3 276.1 84.3 512.1z" fill="#FFC544" p-id="1631"></path><path d="M511.1 959.7c-119.5 0-231.8-46.6-316.2-131.1C110.5 744.2 64 631.8 64 512.1S110.5 280 194.9 195.6 391.6 64.5 511.1 64.5s231.8 46.6 316.2 131.1c84.6 84.7 130.9 197.1 130.9 316.5s-46.5 232.1-130.9 316.5-196.7 131.1-316.2 131.1z m0-854.4c-224 0-406.4 182.6-406.4 406.8s182.4 406.8 406.4 406.8 406.4-182.6 406.4-406.8-182.2-406.8-406.4-406.8z" fill="#FFD400" p-id="1632"></path><path d="M184.2 514.1c0 180.7 146.3 327.2 326.9 327.2S838 694.8 838 514.1 691.7 186.9 511.1 186.9 184.2 333.4 184.2 514.1z" fill="#FFE22A" p-id="1633"></path><path d="M511.1 861.8c-191.6 0-347.3-155.9-347.3-347.7s155.7-347.7 347.3-347.7 347.3 155.9 347.3 347.7-155.7 347.7-347.3 347.7z m0-654.6c-169 0-306.6 137.6-306.6 306.9S342 821 511.1 821s306.6-137.6 306.6-306.9-137.5-306.9-306.6-306.9z" fill="#FFFFFF" p-id="1634"></path><path d="M188.6 494.9h631.8v40.8H188.6v-40.8z" fill="#FFFFFF" p-id="1635"></path><path d="M274 726.3L720.7 279l28.8 28.8-446.7 447.3-28.8-28.8z" fill="#FFFFFF" p-id="1636"></path><path d="M274 307.9l28.8-28.8 446.8 447.3-28.8 28.8L274 307.9z" fill="#FFFFFF" p-id="1637"></path><path d="M489.7 191.2h40.7v632.5h-40.7V191.2z" fill="#FFFFFF" p-id="1638"></path><path d="M626.5 165.6c-1-0.9-1.1-2.4-0.2-3.4 44.1-52.8 95.6-81.3 154.4-85.5 58.7-4.1 113.7 16.7 165.1 62.7 1 0.9 1.1 2.4 0.2 3.4-44.1 52.8-95.6 81.3-154.4 85.5-58.8 4.2-113.9-16.7-165.1-62.7z" fill="#8CCA01" p-id="1639"></path><path d="M618.6 174.4c-5.7-5.1-6.3-13.6-1.4-19.5 46-55.2 100.7-85.4 162.5-89.8 61.8-4.4 120.2 17.6 173.8 65.6 5.7 5.1 6.3 13.6 1.4 19.5-46 55.2-100.7 85.4-162.5 89.8-8.7 0.6-17.4 0.7-25.9 0.3-52.2-2.7-101.9-24.7-147.9-65.9z m162.7-86.1c-52.6 3.8-99.8 28.9-140.3 74.6 46.7 39.5 97 57.6 149.6 53.8 52.6-3.8 99.8-28.9 140.3-74.6-46.6-39.4-97-57.5-149.6-53.8z" fill="#358203" p-id="1640"></path><path d="M685.1 179.2c-16.1-0.8-34.1-4.8-53.9-12-6.1-2.3-9.2-9-7-15 2.3-6 9-9.1 15.1-6.9 22.2 8.1 41.4 11.6 57 10.6 13.9-0.9 37.8-5.8 70.8-14.4 6.2-1.7 12.6 2.1 14.3 8.3 1.7 6.2-2.1 12.6-8.3 14.2-35 9.2-59.6 14.2-75.4 15.1-4 0.3-8.2 0.3-12.6 0.1z" fill="#358203" p-id="1641"></path><path d="M221 413.2s74.8-187.3 332.8-126.4c-17 2.6-221.2-27.3-332.8 126.4z" fill="#FFC544" p-id="1642"></path><path d="M161.2 624.1a351.8 304.1 0 1 0 703.6 0 351.8 304.1 0 1 0-703.6 0Z" fill="#FFDEC2" p-id="1643"></path><path d="M308.2 623.3a58.9 85.5 0 1 0 117.8 0 58.9 85.5 0 1 0-117.8 0Z" fill="#8CCA01" p-id="1644"></path><path d="M273.3 617.4c7.9-38.9 39-67.9 76.1-67.9s68.3 29 76.1 67.9h0.5c0-47.2-34.3-85.5-76.6-85.5s-76.6 38.3-76.6 85.5" fill="#8CCA01" p-id="1645"></path><path d="M635.3 623.3a58.9 85.5 0 1 0 117.8 0 58.9 85.5 0 1 0-117.8 0Z" fill="#8CCA01" p-id="1646"></path><path d="M600.4 617.4c7.9-38.9 39-67.9 76.1-67.9s68.3 29 76.1 67.9h0.5c0-47.2-34.3-85.5-76.6-85.5s-76.6 38.3-76.6 85.5" fill="#8CCA01" p-id="1647"></path><path d="M450 725.7a60.1 25.9 0 1 0 120.2 0 60.1 25.9 0 1 0-120.2 0Z" fill="#FFD400" p-id="1648"></path><path d="M221 753.3a80 25.9 0 1 0 160 0 80 25.9 0 1 0-160 0Z" fill="#FFB6B6" p-id="1649"></path><path d="M645 753.3a80 25.9 0 1 0 160 0 80 25.9 0 1 0-160 0Z" fill="#FFB6B6" p-id="1650"></path><path d="M492.8 711.2a17.3 7.4 0 1 0 34.6 0 17.3 7.4 0 1 0-34.6 0Z" fill="#FFFFFF" p-id="1651"></path><path d="M864.8 667.5c0-167.9-157.5-304.1-351.8-304.1S161.2 499.6 161.2 667.5v-43.4C161.2 456.2 318.7 320 513 320s351.8 136.1 351.8 304.1" fill="#8CCA01" p-id="1652"></path></svg>