<?xml version="1.0" standalone="no"?><!DOCTYPE svg PUBLIC "-//W3C//DTD SVG 1.1//EN" "http://www.w3.org/Graphics/SVG/1.1/DTD/svg11.dtd"><svg t="1552738295151" class="icon" style="" viewBox="0 0 1024 1024" version="1.1" xmlns="http://www.w3.org/2000/svg" p-id="1675" xmlns:xlink="http://www.w3.org/1999/xlink" width="200" height="200"><defs><style type="text/css"></style></defs><path d="M230.6 749.7l62.1-17.5 444.2 8.3 63.7 9.8 28.5 231.9-637 1z" fill="#FFFFFF" p-id="1676"></path><path d="M307 319.6c-5.5-2.1-11-4-16.4-6.3-10.9-4.5-16.6-11.8-16.2-24.6 0.9-34.2 1.1-68.5 0.8-102.7-0.1-13.1 4.7-22.6 15-30 55.7-40 116.7-69.7 182.5-87.5 21.2-5.8 47-0.7 69.3 4.9 42.8 10.8 84.8 25.1 126.8 38.8 16.8 5.5 26.2 17.5 29.6 36.1 6.3 35.2 15 69.9 22.6 104.8-9.3 22.7-31.1 28.5-50.8 35.3-74.1 25.8-151.3 35.2-229.1 38.3-37.7 1.5-75.6-1.6-113.4-2.7-6.8-1.4-13.7-2.9-20.7-4.4z m286.5-43.2c11.5-20.1 20.8-34.3 28-49.5 12.2-25.6 5.6-42-19.2-55.6-15.2-8.3-27.2-5.2-39.1 6.2-16 15.4-21.7 27.6-12.7 42.1 11.5 18.7 26.5 35.3 43 56.8z" fill="#C34036" p-id="1677"></path><path d="M327.8 324.1c37.8 1 75.7 4.1 113.4 2.7 77.8-3 155-12.5 229.1-38.3 19.7-6.9 41.5-12.7 50.8-35.3 26.9 10 53.8 19.9 80.7 29.9 0.5 0.2 0.9 0.5 1.4 0.7 11.7 5.4 25.8 10.5 25.8 25.2 0 15.3-14.8 19.5-26.7 23.9-19.4 7.2-39.2 13.5-58.8 20.2-15.2 4.6-30.3 9.2-45.6 13.9 12.8 26.2 13.5 30 10.1 55.7-5.5 42.1-29.8 67.1-64.7 66.5-45.1-0.8-89.8-35.7-98.6-79.8-3.7-18.4-13.2-23.8-29.6-23.2-13.1 0.5-25 1.2-28.4 18.5-8.9 44.5-38.2 70.6-80.5 82-23.7 6.4-47.4 4.1-64.3-17.1-19.1-23.9-25.1-52.4-19-81.6 5.1-24.1 28.2-29.8 48.6-36.6 0.3-0.1 0.4-0.8 1-2-14.7-8.4-29.7-16.9-44.7-25.3z m133.2 55c-32.1-10.8-58.9-5.6-85.6 1.9-13.3 3.7-25.8 9.8-27.1 25.6-1.7 21 1.3 40.9 19.1 56 31.3-27.9 61.2-54.7 93.6-83.5z m117.6 7.9c29.7 26.5 57.1 51 85.2 76.1 13.9-14.3 19-29.8 18.9-47.6-0.2-22.2-18.6-39.3-40.3-36.7-19.9 2.5-39.8 5.1-63.8 8.2z" fill="#403F40" p-id="1678"></path><path d="M515.6 908.4c-49.9-2-100.3 0.8-147.8-19.7-21.6-9.3-39.7-24.2-47.8-44.9-11.7-29.9-18.1-62-26.3-93.2-3.4-12.9 2.6-19.4 15.6-22.1 14-2.9 27.5-8.9 41.6-11.1 12.3-2 14-8.4 13.9-18.8-0.4-24.1 0.1-48.1 0.2-72.2 12.7 9 25.4 18 38.1 27.1 23.3 16.7 40.6 43.2 72.6 45.6 13.2 1 26.6 0.8 39.9 1.1-0.1 69.3-0.1 138.8 0 208.2z" fill="#EFC7C6" p-id="1679"></path><path d="M515.6 908.4c-0.1-69.4-0.1-138.8-0.2-208.2 5.3 0 10.6-0.1 15.9-0.1 21 1.2 41.1-0.3 58.5-14.7 19.5-16.2 39.4-31.8 59.5-47.3 4.7-3.6 10.8-5.6 16.2-8.3 0.2 23 0.8 45.9 0.4 68.9-0.2 10.4 1.7 16.6 13.8 18.8 16.2 2.9 32 8.2 47.6 13.4 4 1.3 9.9 6.7 9.6 9.7-4.2 45.9-11.1 91.1-43.5 127.4-20.2 22.6-48 30.1-75.9 33.7-33.7 4.3-67.9 4.6-101.9 6.7z" fill="#E7B4B2" p-id="1680"></path><path d="M531.3 700c-5.3 0-10.6 0.1-15.9 0.1-13.3-0.3-26.6-0.1-39.9-1.1-32.1-2.4-49.3-28.9-72.6-45.6-12.7-9.1-25.4-18.1-38.1-27.1-14.7-37.6-29.3-75.3-44.2-112.8-1.3-3.3-3.8-7.6-6.6-8.4-33.5-10.1-41.7-38.7-48-67.5-3.7-16.9-4-34.8-4.3-52.2-0.3-14.6 11.2-29.2 24.6-28.7 19.4 0.7 20-10.8 20.1-24.3 0-4.3 0.4-8.5 0.6-12.8 6.9 1.5 13.8 2.9 20.8 4.4 15 8.5 30 17 45 25.4-0.6 1.2-0.7 1.9-1 2-20.4 6.8-43.5 12.5-48.6 36.6-6.2 29.1-0.2 57.6 19 81.6 16.9 21.1 40.5 23.5 64.3 17.1 42.3-11.4 71.7-37.4 80.5-82 3.4-17.3 15.3-17.9 28.4-18.5 0.1 34.1 0.1 68.2 0.2 102.2-22.7 3-45.6 4.9-68 9.4-17.1 3.5-30.5 14.3-34.2 32.4-7.9 39.1-2.8 74.8 31.5 100.9 23.4 17.8 47.1 35.1 70.7 52.7-4.1 14.7 9.9 11.4 15.7 16.2z" fill="#F0D5D5" p-id="1681"></path><path d="M531.3 700c-5.8-4.8-19.8-1.5-15.9-16 24.4-18.3 49.1-36 73-54.9 26.1-20.7 35.2-48.5 31.6-81.3-3.7-33.8-14.9-47.2-48.9-53.3-18.3-3.3-37.1-4.1-55.7-6-0.1-34.1-0.1-68.2-0.2-102.2 16.4-0.6 25.9 4.8 29.6 23.2 8.8 44.1 53.5 79 98.6 79.8 34.9 0.6 59.2-24.4 64.7-66.5 3.4-25.7 2.7-29.5-10.1-55.7 15.3-4.7 30.5-9.3 45.6-13.9 26.8 10.8 29.2 33.7 25.2 57.1-3.8 22.3-11.1 44-17.8 65.7-4.6 14.9-16.3 23.1-30.8 27.9-3.5 1.1-7.8 3.8-9 6.9-15.1 36.4-29.7 72.9-44.3 109.5-1.1 2.9-0.9 6.3-1.4 9.5-5.4 2.7-11.5 4.7-16.2 8.3-20.1 15.5-40 31.1-59.5 47.3-17.3 14.3-37.5 15.8-58.5 14.6z" fill="#ECC6C5" p-id="1682"></path><path d="M992.8 982.2H829.1c-9.4-76.7-18.7-152.6-28.5-231.8 22.6 5.8 42.3 11.5 62.3 15.7 41 8.5 66.5 31.7 79.2 72.4 13.6 43.8 31 86.5 46.6 129.7 1.6 4.3 2.6 8.8 4.1 14z" fill="#E7B4B2" p-id="1683"></path><path d="M97.4 819c7.4-24.7 25.7-39.6 48.5-47.2 27.2-9.1 55.5-14.7 84.7-22.1-4 33.1-7.8 66-11.8 98.9-5 40.6-10.4 81.2-15 121.8-0.9 8-1.8 12.9-11.6 12.8-49.7-0.4-99.5-0.3-149.2-0.4-1.5 0-3-0.8-6.3-1.9 5.2-12.4 10.3-24.5 15.3-36.5 15.5 5 31 9.9 49.3 15.8-2.8-12.5 8.1-24.8-9.7-28.7-26-5.6-27.3-9.7-10.7-31.4 2.6-3.4 5.3-6.7 8.1-9.9 15.4-18.4 19.2-49.7 8.4-71.2z m12.5 97.2c0 7.6-0.5 14 0.1 20.3 1.7 18.2 24.3 35.2 43.9 33.3 10.9-1 21.3-18.2 21.7-34.9 0.4-17.6 1.6-35.2-15.3-48 21.9-16.6 15.1-38.3 14.4-57.8-0.5-15-12.1-20.5-26.9-19-20.4 2.1-40.9 25.5-34.1 49.6 6.8 0 15.2 2.2 21.1-0.7 5-2.5 7.1-10.9 10.5-16.6-4 10.5 10.1 25.9-9.7 33.1-2.5 0.9-2.7 20.2 2 26.2 7.6 9.6 11.6 22.6 2.9 36.1-0.9-7.5-1.7-14.2-2.5-21.7-9.3 0.1-17.6 0.1-28.1 0.1z" fill="#ECC5C4" p-id="1684"></path><path d="M97.4 819c10.8 21.4 7 52.8-8.6 71.1-2.8 3.2-5.5 6.6-8.1 9.9-16.7 21.7-15.4 25.8 10.7 31.4 17.8 3.9 6.9 16.2 9.7 28.7-18.3-5.9-33.8-10.8-49.3-15.8 11.1-32.1 22-64.3 33.4-96.4 3.5-9.7 8.1-19.2 12.2-28.9z" fill="#94674F" p-id="1685"></path><path d="M593.5 276.4c-16.6-21.5-31.5-38.1-43-56.8-9-14.5-3.3-26.7 12.7-42.1 11.8-11.4 23.9-14.5 39.1-6.2 24.8 13.6 31.4 30 19.2 55.6-7.2 15.2-16.5 29.4-28 49.5z" fill="#E0B042" p-id="1686"></path><path d="M461 379.1c-32.4 28.9-62.3 55.6-93.6 83.5-17.8-15.1-20.8-35-19.1-56 1.3-15.8 13.8-21.8 27.1-25.6 26.7-7.5 53.6-12.7 85.6-1.9zM578.6 387c24-3.1 43.9-5.7 63.8-8.1 21.7-2.6 40.1 14.5 40.3 36.7 0.2 17.8-5 33.3-18.9 47.6-28-25.2-55.5-49.7-85.2-76.2z" fill="#5A5B5E" p-id="1687"></path><path d="M515.4 488.5c18.6 1.9 37.3 2.7 55.7 6 34 6.1 45.2 19.5 48.9 53.3 3.6 32.8-5.6 60.6-31.6 81.3-23.8 18.9-48.6 36.7-73 54.9-23.6-17.5-47.3-34.9-70.7-52.7-34.3-26.1-39.4-61.8-31.5-100.9 3.6-18.1 17.1-28.9 34.2-32.4 22.4-4.6 45.3-6.5 68-9.5z m-0.1 46.1h-72.8c1.8 47.2 28.1 73.6 72.8 74.2 44 1 77.2-33.1 72-74.2h-72z" fill="#414041" p-id="1688"></path><path d="M109.9 916.2H138c0.9 7.5 1.7 14.1 2.5 21.7 8.7-13.5 4.7-26.5-2.9-36.1-4.8-6-4.5-25.3-2-26.2 19.8-7.2 5.8-22.6 9.7-33.1-3.4 5.8-5.5 14.2-10.5 16.6-5.9 2.9-14.3 0.7-21.1 0.7-6.7-24.1 13.7-47.5 34.1-49.6 14.8-1.5 26.4 4 26.9 19 0.7 19.5 7.5 41.2-14.4 57.8 16.9 12.8 15.7 30.4 15.3 48-0.4 16.6-10.8 33.8-21.7 34.9-19.6 1.9-42.2-15.1-43.9-33.3-0.6-6.4-0.1-12.8-0.1-20.4z" fill="#91644C" p-id="1689"></path><path d="M515.3 534.6h72c5.2 41-28 75.2-72 74.2v-74.2z" fill="#E6C1C0" p-id="1690"></path><path d="M515.3 534.6v74.2c-44.7-0.6-71-27-72.8-74.2h72.8z" fill="#F0D4D4" p-id="1691"></path></svg>