<?xml version="1.0" standalone="no"?><!DOCTYPE svg PUBLIC "-//W3C//DTD SVG 1.1//EN" "http://www.w3.org/Graphics/SVG/1.1/DTD/svg11.dtd"><svg t="1552892329515" class="icon" style="" viewBox="0 0 1024 1024" version="1.1" xmlns="http://www.w3.org/2000/svg" p-id="1675" xmlns:xlink="http://www.w3.org/1999/xlink" width="200" height="200"><defs><style type="text/css"></style></defs><path d="M323.5 708.5l16.8-0.3H697.6l-30.9 111.5s-79.4 62.8-85.3 54c-5.9-8.9-70.9 9.7-70.9 9.7l-129.7-37.1-57.2-106.6v-31.2z" fill="#FFFFFF" p-id="1676"></path><path d="M585.9 820.1c47.8-16.9 83.3-47.5 104.7-93.8 2.5-5.5 4.4-11.3 7-18 52.4 14.1 103.7 28.5 155.3 41.6 22.5 5.7 41.2 16.3 53.6 35.7 6.5 10.2 10.6 22.2 14.8 33.7 16.5 44.7 32.7 89.6 49.8 136.6H510.7c-0.1-27.4-0.2-54.8-0.2-82.2 16.4-8.2 14.4-24 15.8-38.3l28.2-3.3-0.3 0.1c0.7 1.1 1.4 2.1 2.2 3.2 0.8 2.9 0.9 6.3 2.6 8.6 3.1 4.3 7.1 7.9 10.7 11.8 4.1-4 9.9-7.3 11.8-12.2 2.8-7.2 3-15.6 4.4-23.5z" fill="#E7B4B2" p-id="1677"></path><path d="M510.4 873.7c0.1 27.4 0.2 54.8 0.2 82.2h-460c8.1-23.4 15.2-44.1 22.5-64.6 9.9-28 19.2-56.3 30.2-83.9 11.3-28.3 29.1-49 61.6-56.5 49.4-11.4 98-26 147-39.2 3.4-0.9 6.8-1.8 11.6-3.1 16.6 49.9 50.2 83.8 97 105.4 0.7 9.6 0.1 19.6 2.7 28.8 1.7 6.1 7.9 10.9 12.1 16.2 4.4-5.1 9.5-9.7 12.9-15.4 2.5-4.2 2.8-9.7 4.1-14.7 14.2 2.2 28.4 4.3 42.6 6.5 1.6 14.2-0.6 30 15.5 38.3z" fill="#EFC7C6" p-id="1678"></path><path d="M712.8 356.2c26.8-7.9 41.7 3.2 42 31.2 0.3 29.7-3.8 58.7-19.6 84.3-5.5 9-16 14.9-24.3 22.2-4.9 4.3-12 7.8-14.3 13.2-15.1 36-29.2 72.4-43.6 108.7-12.8 9.1-26 17.8-38.3 27.5-28.1 22.1-53.9 49-95 40.6-3.1-5.6-8.7-11.1-8.8-16.7-0.8-32.6-0.4-65.2-0.3-97.8 15.8-3.8 32.4-5.6 47.3-11.8 12.9-5.4 23.7-15.6 23.4-34.4h-70.8c0-90.5 0.1-180.9 0.1-271.4l-0.3-1.2c41.6 0.4 78.9-11 108.4-40.6 63.8 41 64.7 105.6 64.9 169.9h27.7c0.7-8.4 1.1-16.1 1.5-23.7z m-130.1-3.5c-1.8 18.2-13.1 26.6-28.5 30.2 4.5 19.7 15.3 28.3 32.3 26.2 13.6-1.7 24.3-13.4 24.9-27.2 0.6-15.5-9.6-26.4-28.7-29.2z" fill="#EDC7C6" p-id="1679"></path><path d="M510.6 569.5c0 32.6-0.5 65.2 0.3 97.8 0.1 5.6 5.7 11.1 8.8 16.7-3.1 0-6.1 0.1-9.2 0.1-6.2 0-12.5 1-18.4-0.2-16.1-3.3-32.7-6-47.9-11.9-9.5-3.6-16.8-12.7-25.3-19.1-17.7-13.3-35.4-26.5-53.2-39.7-14.1-36.2-28.2-72.4-42.5-108.5-1.4-3.5-4.4-7.8-7.6-8.9-29.9-10.3-38.6-35.7-44.5-62.6-2.9-13.4-4.3-27.3-4.6-40.9-0.7-31.5 10.6-41.2 42.3-37.9 0.5 8.5 1.1 17.1 1.7 26.8 5.5 0 10 0.1 14.5 0s8.9-0.6 14.9-1c-1-64.9 0-128.7 63.5-169.1 29.2 30 66.7 39.7 107.3 40.9 0 90.5-0.1 180.9-0.1 271.4h-69.9c0.1 18.5 12.2 33.4 32.5 39.5 12.1 3.5 24.9 4.4 37.4 6.6z m-99-181.3c3.1 14.1 14.2 23 30.8 20.9 14.8-1.9 25.7-15 24.9-29.9-0.8-15.4-11.8-25.3-22.2-25.2-12.1 12.4-21.4 21.9-33.5 34.2z" fill="#F0D5D5" p-id="1680"></path><path d="M510.7 251.9c-40.6-1.2-78.1-10.9-107.3-40.9-63.5 40.4-64.5 104.2-63.5 169.1-6 0.4-10.4 0.8-14.9 1-4.5 0.2-9.1 0-14.5 0-0.6-9.7-1.2-18.3-1.7-26.8 0.2-28.8 1.7-57.7 0.4-86.4-3-63.5 21.4-113.8 70.5-153.1 14.8-11.9 29.3-24.2 44.6-36.8 5.1 4.6 9.5 8.7 14 12.7 17.1 14.7 29.9 14.3 45.1-2.8 9.8-11 18.2-23.2 27.2-34.9v197.8l0.1 1.1z" fill="#91644A" p-id="1681"></path><path d="M510.4 250.7V52.9c7.1 9.2 14.1 18.4 21.2 27.5 21.2 27.2 33.5 28.2 59.1 4.9 1.9-1.7 3.8-3.3 6.6-5.7 62.3 45.4 118.6 93.6 115.2 180.9-1.2 31.9 0.1 63.8 0.3 95.8-0.4 7.6-0.9 15.2-1.3 23.8h-27.7c-0.2-64.3-1.2-128.9-64.9-169.9-29.6 29.5-66.8 40.9-108.5 40.5z" fill="#7A4933" p-id="1682"></path><path d="M365.8 613.1c17.7 13.2 35.5 26.4 53.2 39.7 8.5 6.4 15.8 15.5 25.3 19.1 15.3 5.9 31.8 8.6 47.9 11.9 5.9 1.2 12.3 0.2 18.4 0.2 0 39-0.1 78.1-0.1 117.1-4.6 6.3-9.2 12.6-13.7 19-15.2-3.3-30.4-6.6-45.6-9.8-0.9-2.8-1.4-6-2.9-8.4-3.4-5.3-7.4-10.1-11.2-15.2-4.6 3.9-9.1 7.9-13.7 11.8-27.1-13.2-51.3-30-68.3-55.4-5.3-8-9.1-17.1-13-25.9-4-9-0.9-15.5 9-16.4 13.2-1.2 15-8.8 14.7-20-0.7-22.5-0.1-45.1 0-67.7z" fill="#EFC7C6" p-id="1683"></path><path d="M510.5 801.2c0-39 0.1-78.1 0.1-117.1 3.1 0 6.1-0.1 9.2-0.1 41 8.4 66.9-18.5 95-40.6 12.4-9.7 25.5-18.4 38.3-27.5 0.8 21.9 2.1 43.9 2.2 65.8 0 10.5 1.4 17.8 13.9 19 11.9 1.1 12.9 8.5 9.4 18.7-10.3 30.4-33.3 49.8-58.3 67-10.8 7.5-23.5 12.2-35.3 18.2-1.2-3.3-1.8-7.2-3.8-9.9-3.2-4.1-7.4-7.4-11.1-11-3.6 3.9-8.5 7.2-10.6 11.8-2.9 6.3-3.6 13.6-5.2 20.5-9.8 1.4-19.7 2.8-29.5 4.2-4.9-6.4-9.6-12.7-14.3-19z" fill="#E7B4B2" p-id="1684"></path><path d="M423.3 798.6c4.6-3.9 9.1-7.9 13.7-11.8 3.8 5 7.8 9.9 11.2 15.2 1.6 2.4 2 5.6 2.9 8.4 0.3 6.2 0.7 12.4 1 18.5-1.3 4.9-1.5 10.5-4.1 14.7-3.4 5.7-8.5 10.3-12.9 15.4-4.2-5.4-10.4-10.2-12.1-16.2-2.5-9.1-1.9-19.1-2.7-28.8 1.1-5.2 2.1-10.3 3-15.4z" fill="#57A99C" p-id="1685"></path><path d="M554.2 815.9c1.6-6.9 2.4-14.2 5.2-20.5 2.1-4.6 7-7.9 10.6-11.8 3.8 3.6 8 6.9 11.1 11 2.1 2.7 2.6 6.5 3.8 9.9 0.3 5.2 0.6 10.4 0.8 15.6-1.3 7.9-1.5 16.3-4.5 23.6-1.9 4.9-7.7 8.2-11.8 12.2-3.6-3.9-7.6-7.5-10.7-11.8-1.7-2.3-1.8-5.7-2.6-8.6-0.7-1.1-1.4-2.1-2.2-3.2l0.3-0.1c0.1-5.5 0.1-10.9 0-16.3z" fill="#53A79A" p-id="1686"></path><path d="M510.5 801.2c4.7 6.3 9.4 12.6 14.2 18.9 0.5 5.1 1 10.1 1.6 15.2-1.4 14.4 0.6 30.2-15.8 38.3-16.1-8.3-13.9-24.1-15.6-38.3 0.6-5.1 1.3-10.1 1.9-15.2 4.5-6.2 9.1-12.6 13.7-18.9z" fill="#DB645E" p-id="1687"></path><path d="M554.1 832.2c0.7 1.1 1.4 2.1 2.2 3.2-0.7-1.1-1.4-2.1-2.2-3.2z" fill="#E7B4B2" p-id="1688"></path><path d="M510.6 569.5c-12.5-2.1-25.4-3.1-37.4-6.7-20.3-6.1-32.4-21-32.5-39.5h140.7c0.2 18.7-10.5 29-23.4 34.4-14.9 6.1-31.5 8-47.4 11.8z" fill="#E19694" p-id="1689"></path><path d="M582.7 352.7c19.2 2.9 29.4 13.7 28.7 29.3-0.6 13.8-11.4 25.5-24.9 27.2-16.9 2.1-27.8-6.5-32.3-26.2 15.3-3.7 26.6-12.1 28.5-30.3z" fill="#444243" p-id="1690"></path><path d="M411.6 388.2c12.1-12.3 21.4-21.8 33.5-34.2 10.4-0.1 21.3 9.8 22.2 25.2 0.8 15-10.1 28.1-24.9 29.9-16.5 2.1-27.7-6.7-30.8-20.9z" fill="#424142" p-id="1691"></path></svg>