<?xml version="1.0" standalone="no"?><!DOCTYPE svg PUBLIC "-//W3C//DTD SVG 1.1//EN" "http://www.w3.org/Graphics/SVG/1.1/DTD/svg11.dtd"><svg t="1552885711809" class="icon" style="" viewBox="0 0 1024 1024" version="1.1" xmlns="http://www.w3.org/2000/svg" p-id="1675" xmlns:xlink="http://www.w3.org/1999/xlink" width="200" height="200"><defs><style type="text/css"></style></defs><path d="M354.1 711.7l15.9-9.3 293.8 5.6 15.2 3.3V902l-105.4 50.5h-67.9l-82.2-6.3-94.5-52.9z" fill="#FFFFFF" p-id="1676"></path><path d="M952.8 880.4c11.5 29.5 23.1 59.1 35.3 90.2H45.8c13.7-36.1 27-71.4 40.4-106.6 9.3-3.3 18.6-6.6 27.8-10 99.9-36.5 204.1-49.7 309.5-56.3 17.7 10.1 35.3 20.6 53.3 30.2 8.9 4.7 4.6 10.7 4.2 17.3-1.3 24.3-4 49-1.4 73 2.2 21 17.9 31.4 37.2 31.4 19 0 32.7-10.9 37.7-31.6 5.9-24.4 6.1-49-2-73-3-8.7-2.3-14.2 7.2-18.7 16-7.6 31.2-16.8 46.7-25.3 41.4 4.3 83 7.4 124.2 13.1 55.4 7.6 109.6 20.5 161.8 41.1 20.3 8 40.3 16.8 60.4 25.2z" fill="#53A7C2" p-id="1677"></path><path d="M369.3 622.2c-14.4-36.9-28.7-73.9-43.4-110.8-1.6-4-5-8.8-8.8-10.2-29.7-11.4-39.2-36.7-45.2-64.3-2.4-11.1-3-22.7-4.5-34-2.4-18.2 1.5-34.2 15.8-46.7 33.4 13.8 25.1 45.4 29.1 71.5h28.1V228.2c55.8 34.9 113.7 51.8 176.3 52l-0.3 1c0.1 82.8 0.1 165.6 0.2 248.4h-76.5c6 10.8 8.6 18 13.3 23.5 16.5 19.9 39.8 21 63.1 21.3 0.1 39.4 0.1 78.8 0.2 118.3-22.2 0.4-45.4 5.8-65.3-8.9-16-11.8-30.9-25-46.7-37-11.3-8.8-23.5-16.5-35.4-24.6zM444.4 355c-2.7 17.1-13.3 27.4-30.1 30.8 4.7 19.2 15.7 28.5 31.5 27.1 14.6-1.3 26.2-13.4 26.9-28 0.7-15.9-9-26.5-28.3-29.9z" fill="#F0D6D4" p-id="1678"></path><path d="M516.7 529.5c-0.1-82.8-0.1-165.6-0.2-248.4 37.1-1.3 74.3-1.7 111.3-4.4 21.5-1.6 42.8-6.9 66.3-10.9v161.3h27.7c0.7-27.8-3.8-57.3 28.3-71.2 25.4 23.2 16.4 52.2 11.6 79.2-5.2 28.8-15.4 56-47.8 66.3-2.5 0.8-5.1 3.8-6.1 6.4-14.7 37.9-29.2 76-43.8 114-2.3 0.8-5.1 1.1-7 2.6-23.5 18.3-46.3 37.5-70.6 54.7-9.7 6.9-22 11.3-33.8 13.5-11.6 2.2-23.9 0.1-35.9-0.1-0.1-39.4-0.1-78.8-0.2-118.3 15.3-2.7 31.2-3.8 45.9-8.3 17-5.3 26.4-20.5 24.5-36.5-23.1 0.1-46.7 0.1-70.2 0.1z m44-144c6.3 20.9 18.2 29.9 34.3 27.2 14.2-2.4 25.3-16 24.6-30.3-0.7-15.4-11.3-25.4-29.4-26.9-1.1 17.6-12.4 26.4-29.5 30z" fill="#EDC7C6" p-id="1679"></path><path d="M750.2 356c-32.1 13.9-27.6 43.4-28.3 71.2h-27.7V265.9c-23.5 4-44.8 9.4-66.3 10.9-37 2.7-74.2 3.1-111.3 4.4l0.3-1c0-77.8-0.1-155.5-0.1-233.3 79.4-2.8 154.6 12.1 221.6 56.8 35 23.3 61.2 54.4 69.4 97.2 1 5.1-2 13.5-6 16.4-11.8 8.6-24.6 16-37.8 22.2-9 4.2-12.1 9.5-11.9 19.2 0.6 26.7 0.3 53.5 0.1 80.3 0 5.7-1.3 11.3-2 17z" fill="#E1B244" p-id="1680"></path><path d="M516.8 46.9c0 77.8 0.1 155.5 0.1 233.3-62.6-0.2-120.5-17.1-176.3-52v199.5h-28.1c-4-26.1 4.2-57.7-29.1-71.5-0.3-0.4-0.9-0.8-0.9-1.2 0.2-49.1-0.1-98.3 1.2-147.4 0.2-8 5.5-18.1 11.8-23.2 13.2-10.7 16.9-25 22.1-39.7 14.6-40.9 47.7-62.9 85.8-77.8 36.1-14.3 74.1-21.6 113.4-20z" fill="#E9C54F" p-id="1681"></path><path d="M516.8 692.7c12 0.2 24.4 2.3 35.9 0.1 11.8-2.2 24.1-6.6 33.8-13.5 24.2-17.2 47.1-36.4 70.6-54.7 1.9-1.5 4.6-1.8 7-2.6 0.2 28.7 2.3 57.6-0.3 86.1-1.3 13.9-8.5 30.1-18.4 39.6-19.8 18.9-43.3 33.8-65.2 50.4-20.1-1-40.3-2.1-60.4-3.1h-5.9c-22.1-0.1-44.3-0.1-66.4-0.2-22.1-18.1-45.8-34.8-65.7-55.1-8.2-8.4-10.9-24.4-11.7-37.2-1.8-26.6-0.6-53.5-0.7-80.2 11.9 8.2 24.1 15.9 35.5 24.6 15.8 12 30.7 25.3 46.7 37 19.8 14.5 43 9.1 65.2 8.8zM952.8 880.4c-20.1-8.4-40.1-17.2-60.4-25.2-52.1-20.7-106.4-33.5-161.8-41.2-41.2-5.7-82.8-8.8-124.2-13.1 11.3-9.3 22.7-18.4 33.7-28 18.4-16.1 34.3-34 38.9-61.6 24.1 6.3 47.7 12.3 71.3 18.6 41 11 81.9 22.4 123 33.2 28.2 7.5 46.6 25.5 56.7 52.1 8.2 21.5 15.3 43.5 22.8 65.2zM423.5 797.7C318.1 804.3 213.9 817.5 114 854c-9.3 3.4-18.6 6.7-27.8 10 5.9-16.8 10.9-34 17.8-50.4 10.9-26 29.4-43.7 57.7-51 59.8-15.5 119.4-31.9 179.2-47.9 4-1.1 8.1-1.9 13.3-3.1 7.4 41.7 40.7 62 69.3 86.1z" fill="#3B7EA0" p-id="1682"></path><path d="M545 893.5c0 15.5-12.3 27.9-27.9 28.2-15.6 0.2-28.3-11.8-28.7-27.3-0.4-15.9 12.9-29.6 28.6-29.4 15.2 0.2 28 13.3 28 28.5z" fill="#DB813C" p-id="1683"></path><path d="M447.5 794.8c22.1 0.1 44.3 0.1 66.4 0.2-7.9 7.4-15.8 14.9-25.9 24.3-12.4-7.5-26.4-16-40.5-24.5z" fill="#59A7C1" p-id="1684"></path><path d="M519.7 795c20.1 1 40.3 2.1 60.4 3.1-12 7.3-24 14.7-32.7 20-10.2-8.6-19-15.8-27.7-23.1z" fill="#5AA9C2" p-id="1685"></path><path d="M516.7 529.5H587c1.9 16-7.4 31.2-24.5 36.5-14.7 4.6-30.6 5.7-45.9 8.3-23.4-0.3-46.6-1.5-63.1-21.3-4.6-5.6-7.3-12.8-13.3-23.5h76.5z" fill="#E19593" p-id="1686"></path><path d="M444.4 355c19.3 3.4 29 14 28.2 30-0.7 14.6-12.3 26.7-26.9 28-15.7 1.4-26.8-7.9-31.5-27.1 17-3.5 27.5-13.8 30.2-30.9z" fill="#444344" p-id="1687"></path><path d="M560.7 385.5c17.1-3.6 28.3-12.4 29.5-30 18.2 1.6 28.7 11.5 29.4 26.9 0.7 14.2-10.4 27.9-24.6 30.3-16 2.7-28-6.2-34.3-27.2z" fill="#444243" p-id="1688"></path></svg>