<?xml version="1.0" standalone="no"?><!DOCTYPE svg PUBLIC "-//W3C//DTD SVG 1.1//EN" "http://www.w3.org/Graphics/SVG/1.1/DTD/svg11.dtd"><svg t="1552732190963" class="icon" style="" viewBox="0 0 1024 1024" version="1.1" xmlns="http://www.w3.org/2000/svg" p-id="1675" xmlns:xlink="http://www.w3.org/1999/xlink" width="200" height="200"><defs><style type="text/css"></style></defs><path d="M311.7 647.5l-52.9 88.4L509 976.5l240.7-237.7-36.4-91.9z" fill="#FFFFFF" p-id="1676"></path><path d="M292.8 376.3c-5.4-30.8-11.1-61.5-16-92.3-8.1-50.5 7.1-94 40.2-132.1 39.9-45.7 139.1-99.6 195.5-105.2v64l3.6 2.4c22-22 44-43.9 68.6-68.4v71.5c17.8-13.2 32.8-25.3 48.9-35.8 5-3.3 13.4-4.8 19.1-3.2 53.9 14.9 86.4 55 93.2 111.7 6.7 55.5-3.7 109.3-14.2 163.3-1.6 8-2.9 16.1-4.3 24.1-8.5 37.9-17.1 75.8-25.4 113.7-2 9.2-3.5 17.8-17.5 11.2v-16.1c-0.1-50.2 0.5-100.4-0.4-150.6-0.9-49.4-28.5-80.5-77.5-87.4-21-3-42.4-2.5-65-3.7v-38.2c-12.4 7.2-23.2 13.5-34.1 19.8-30.7 5.3-61.4 10.8-92.1 15.9-47 7.8-69.1 30.7-74.4 78-1 9.2-1.6 18.4-1.7 27.6-0.2 39-0.1 77.9-0.1 116.9v39.4c-1.9 0.9-3.8 1.8-5.6 2.8-3.5-4.5-8.8-8.4-10.2-13.5-10.6-38.6-20.5-77.3-30.6-115.8z" fill="#3F3F40" p-id="1677"></path><path d="M292.8 376.3c10.1 38.5 20 77.2 30.7 115.6 1.4 5 6.7 9 10.2 13.5 1.9-0.9 3.8-1.8 5.6-2.8v-39.4c0-39-0.1-77.9 0.1-116.9 0-9.2 0.7-18.5 1.7-27.6 5.2-47.3 27.4-70.2 74.4-78 30.7-5.1 61.4-10.6 92.1-15.9 1.3 5.7 3.7 11.4 3.7 17.1 0.2 101.3 0.1 202.5 0.1 303.8h-74.7c5.8 10.5 8.4 17.5 12.9 23 16.1 19.5 39 20.2 61.7 21.2 0 38.7 0.1 77.3 0.1 116-4.6 0-9.2-0.3-13.7 0.1-25.4 2.7-45.4-5.7-64.6-23.4-19.8-18.3-43.9-31.9-66.1-47.6-2.2-4.2-4.3-8.3-6.5-12.5-8.1-22.4-16.2-44.8-24.4-67.2-3-8.1-5.8-16.4-9.7-24-2.6-5.1-6.2-12.2-10.8-13.5-22.3-6.3-32.2-24.6-37.4-43.1-6.4-22.9-8.2-47.3-9.6-71.2-0.9-15.1 9.6-23.9 24.2-27.2z m162.3 17.6c-2.6-13.5-16.4-22.5-37-21.7-20.5 0.8-32.7 10.9-34.2 26 23.6-1.4 47.6-2.9 71.2-4.3z" fill="#F8EEE2" p-id="1678"></path><path d="M511.4 705.8c0-38.7-0.1-77.3-0.1-116 15.9-3.1 32.6-4.2 47.4-10 13-5 23.5-15.6 23.3-34.2h-70.5c0-101.3 0.1-202.5-0.1-303.8 0-5.7-2.4-11.4-3.7-17.1 10.8-6.3 21.7-12.6 34.1-19.8v38.2c22.6 1.2 44 0.7 65 3.7 49 6.9 76.6 38 77.5 87.4 0.9 50.2 0.3 100.4 0.4 150.6v16.1c14 6.6 15.5-2 17.5-11.2 8.3-37.9 16.9-75.8 25.4-113.7 15.1 1.7 25.8 10.5 26.8 26.1 2.4 36.4-3.2 71.4-25.3 101.8-3.1 4.3-8.3 8.9-13.2 9.7-14.7 2.5-18.7 12.6-23.1 24.8-10.2 28.3-22.1 55.9-33.2 83.8-1.2 4.3-2.3 8.6-3.5 12.9-18.1 13.5-37.2 26-54.2 40.9-23.1 20.2-47.3 35-79.6 29.9-3.5-0.5-7.1 0-10.7 0l-0.2-0.1z m127.8-307.6c-1.9-15.9-14.8-25.9-36-26.1-19.9-0.2-33.1 9-35.1 21.8 23.7 1.4 47.6 2.8 71.1 4.3z" fill="#EFDDC3" p-id="1679"></path><path d="M194 976.5H52.5c20.1-54.6 39.7-108.3 59.7-161.8 2.1-5.6 5.9-11.1 10.4-15 9.6-8.3 19.1-17.8 30.4-22.7 34.7-14.9 105.7-41 105.7-41s11.8 0.8 15.4 4c12.6 11.2 24.1 23.7 36 35.6-10.1 17.8-20.2 35.6-30.4 53.3-25.6 44.3-51.2 88.5-76.9 132.8-2.8 4.9-5.8 9.8-8.8 14.8zM712 777c12.5-12.8 24.6-26 37.8-38.2 3.1-2.9 10.3-4.3 14.3-2.9 35.5 13.1 70.8 26.6 105.8 40.8 20.3 8.2 35.5 23.1 43.2 43.5 18.9 50.2 36.8 100.8 55 151.3 0.5 1.4 0.4 2.9 0.7 5H828.9C789.9 910 751 843.5 712 777z" fill="#3F3F40" p-id="1680"></path><path d="M789.3 976.5h-278c54.4-54.1 106.3-105.7 158.2-157.4 10.3 13.4 20.6 26.7 30.9 40.2 29.6 39.1 59.2 78.2 88.9 117.2zM353.6 819.3c51.3 51.9 102.7 103.9 155.5 157.3H233.7c2.5-3.8 4.7-7.8 7.5-11.5 32.8-43.2 65.7-86.3 98.6-129.5 4.5-5.4 9.1-10.9 13.8-16.3z" fill="#414041" p-id="1681"></path><path d="M366.9 635c22.2 15.7 46.3 29.3 66.1 47.6 19.2 17.7 39.2 26.1 64.6 23.4 4.5-0.5 9.2-0.1 13.7-0.1l0.2 0.2-0.3 209.6c-14.2-17.9-28.8-35.5-42.5-53.8-39.1-52.3-77.8-104.9-116.6-157.4-0.9-1.2-0.9-2.9-1.4-4.4 13.3-5.9 17.7-15.8 16-30.2-1-11.6 0.2-23.3 0.2-34.9z" fill="#F0DDC3" p-id="1682"></path><path d="M511.3 915.6c0.1-69.9 0.2-139.7 0.2-209.6 3.6 0 7.2-0.6 10.7 0 32.2 5.1 56.5-9.7 79.6-29.9 17-14.9 36-27.3 54.2-40.9v18.3c0.1 12.3 0.1 24.6 0.2 36.9 5.3 2.2 10.6 4.3 15.9 6.5-19.2 27.5-38.1 55.2-57.8 82.4-30.8 42.5-62.2 84.5-93.5 126.7-2.6 3.6-6.3 6.4-9.5 9.6z" fill="#E9CDA5" p-id="1683"></path><path d="M789.3 976.5c-29.7-39.1-59.3-78.2-89-117.2-10.2-13.4-20.6-26.8-30.9-40.2l42.5-42.2 117 199.5c-13.2 0.1-26.4 0.1-39.6 0.1z" fill="#DDAF43" p-id="1684"></path><path d="M353.6 819.3c-4.6 5.4-9.2 10.9-13.8 16.3-5 3.1-10.7 5.4-14.8 9.4-35.9 35.5-71.4 71.3-107.3 106.8-4.1 4.1-9.8 6.6-14.7 9.8 25.6-44.3 51.3-88.5 76.9-132.8 10.2-17.7 20.3-35.6 30.4-53.3 14.3 14.6 28.8 29.2 43.3 43.8z" fill="#DDB044" p-id="1685"></path><path d="M202.9 961.6c4.9-3.2 10.6-5.7 14.7-9.8 35.9-35.5 71.4-71.3 107.3-106.8 4.1-4 9.8-6.3 14.8-9.4-32.9 43.2-65.8 86.3-98.6 129.5-2.8 3.6-5 7.6-7.5 11.5-13.2 0-26.4-0.1-39.7-0.1 3.1-5 6.1-9.9 9-14.9z" fill="#D8AB41" p-id="1686"></path><path d="M672.2 697c-5.3-2.2-10.6-4.3-15.9-6.5-0.1-12.3-0.1-24.6-0.2-36.9v-18.3c1.2-4.3 2.3-8.6 3.5-12.9 17 7.8 34.1 15.6 53.8 24.5-14.4 17.4-27.8 33.8-41.2 50.1zM366.9 635c-0.1 11.6-1.2 23.4 0.1 34.8 1.7 14.4-2.7 24.4-16 30.2-12.6-16.9-39.3-52.5-39.3-52.5s33.2-17 48.8-25c2.1 4.1 4.3 8.3 6.4 12.5z" fill="#D0D2D3" p-id="1687"></path><path d="M511.5 545.7H582c0.1 18.6-10.4 29.1-23.3 34.2-14.9 5.8-31.5 6.8-47.4 10-22.7-1-45.6-1.7-61.7-21.2-4.5-5.5-7.1-12.5-12.9-23h74.8z" fill="#E19794" p-id="1688"></path><path d="M455.1 393.9c-23.6 1.4-47.6 2.9-71.2 4.3 1.5-15.2 13.7-25.3 34.2-26 20.6-0.8 34.4 8.2 37 21.7z" fill="#484747" p-id="1689"></path><path d="M639.2 398.2c-23.5-1.4-47.4-2.9-71.1-4.3 2-12.8 15.2-21.9 35.1-21.8 21.2 0.2 34.1 10.2 36 26.1z" fill="#474646" p-id="1690"></path><path d="M656.1 653.6c0.1 12.3 0.1 24.6 0.2 36.9-0.1-12.3-0.2-24.6-0.2-36.9z" fill="#EFDDC3" p-id="1691"></path></svg>